<svg version="1.1" id="Layer_1" xmlns="http://www.w3.org/2000/svg" xmlns:xlink="http://www.w3.org/1999/xlink" x="0px" y="0px"
	 width="100%" viewBox="0 0 926 282" enable-background="new 0 0 926 282" xml:space="preserve">
<path fill="#FFFFFF" opacity="1.000000" stroke="none" 
	d="
M607.000000,283.000000 
	C404.666656,283.000000 202.833328,283.000000 1.000000,283.000000 
	C1.000000,189.000000 1.000000,95.000000 1.000000,1.000000 
	C309.666656,1.000000 618.333313,1.000000 927.000000,1.000000 
	C927.000000,95.000000 927.000000,189.000000 927.000000,283.000000 
	C820.500000,283.000000 714.000000,283.000000 607.000000,283.000000 
M100.402351,59.167713 
	C97.236435,59.174564 94.056366,58.989120 90.906990,59.220814 
	C75.436165,60.358952 61.324203,64.855896 49.604744,75.627884 
	C30.523476,93.166512 29.740160,131.684494 60.008060,145.108475 
	C69.026756,149.108322 78.870155,151.300568 88.413574,154.050766 
	C97.962395,156.802551 107.745735,158.803513 117.161499,161.930817 
	C122.941040,163.850403 126.764565,168.274094 127.186432,174.966461 
	C127.631821,182.031952 124.700424,187.238083 118.868958,190.874313 
	C116.790359,192.170425 114.471855,193.215225 112.127022,193.927643 
	C102.470734,196.861435 92.691238,196.763916 83.129547,193.786133 
	C76.012856,191.569794 69.104576,188.033508 66.751831,180.424408 
	C65.147263,175.235001 62.528488,174.421814 57.876167,174.654358 
	C50.893993,175.003357 43.881371,174.725372 36.881969,174.763779 
	C35.622162,174.770691 34.363667,175.017426 33.159065,175.147537 
	C32.788071,192.536942 42.897739,208.473541 59.118404,216.055634 
	C78.934486,225.318405 99.617424,225.829254 120.567711,221.223999 
	C135.764664,217.883438 148.417023,210.572845 156.189651,196.335571 
	C168.853241,173.139450 160.403290,146.240814 136.384506,135.459274 
	C128.732346,132.024368 120.320938,130.208221 112.166313,127.983597 
	C101.780441,125.150291 91.171799,123.072548 80.910767,119.864410 
	C74.193298,117.764183 70.138687,112.285736 70.237396,105.106766 
	C70.331947,98.229591 74.338501,93.161133 80.547958,90.346634 
	C90.548347,85.813881 100.992355,85.712143 111.168358,89.350830 
	C119.653290,92.384834 125.420654,98.396042 126.252869,107.825882 
	C137.151566,107.825882 147.544708,107.825882 157.918152,107.825882 
	C158.202118,97.225624 155.030197,87.309402 148.776093,79.663284 
	C136.522141,64.681931 119.743698,60.048725 100.402351,59.167713 
M688.565857,187.096725 
	C686.072937,188.726578 683.731323,190.678528 681.061829,191.932602 
	C666.570374,198.740356 647.854675,194.544922 639.085571,182.575867 
	C634.361389,176.127853 633.013123,168.599808 632.993896,160.842072 
	C632.917358,130.018372 632.959106,99.194374 632.957092,68.370483 
	C632.956970,66.423325 632.957153,64.476166 632.957153,62.434635 
	C621.332214,62.434635 610.312317,62.434635 599.350220,62.434635 
	C599.168396,63.370602 598.990479,63.857143 598.991150,64.343437 
	C599.040039,99.997391 598.208679,135.683777 599.500061,171.293106 
	C600.275879,192.685028 612.377258,208.207962 632.136658,217.196930 
	C647.969727,224.399719 664.602051,225.420471 681.462219,222.746811 
	C694.487488,220.681290 706.363098,215.611267 716.084290,206.317734 
	C728.612000,194.341141 732.783447,179.057159 732.874329,162.410110 
	C733.047119,130.754089 732.928894,99.096443 732.914429,67.439484 
	C732.913696,65.819687 732.751831,64.199959 732.656372,62.419483 
	C721.277283,62.419483 710.259949,62.419483 698.927307,62.419483 
	C698.927307,64.844101 698.927368,66.831123 698.927368,68.818146 
	C698.927002,99.475418 699.037170,130.133331 698.861328,160.789597 
	C698.805847,170.467346 696.642639,179.629105 688.565857,187.096725 
M891.874390,119.352020 
	C891.293701,113.257599 891.561279,106.933586 889.984802,101.108688 
	C883.300903,76.412605 863.867920,61.998962 838.136902,61.981377 
	C817.983582,61.967602 797.830322,61.978195 777.677002,61.977959 
	C775.907104,61.977940 774.137268,61.977951 772.310181,61.977951 
	C772.310181,115.346092 772.310181,168.004028 772.310181,220.592621 
	C783.660400,220.592621 794.548401,220.592621 806.039551,220.592621 
	C806.039551,203.970581 806.039551,187.748138 806.039551,171.033966 
	C808.942200,171.033966 811.239746,171.086044 813.534241,171.025177 
	C824.990112,170.721344 836.565491,171.325546 847.876099,169.874329 
	C873.349976,166.605881 891.103394,146.032547 891.874390,119.352020 
M238.852234,100.431656 
	C234.406082,101.036690 229.888168,101.322250 225.526108,102.301758 
	C206.054001,106.674194 193.316727,120.996254 192.593338,139.834961 
	C202.021988,139.834961 211.419250,139.886566 220.813278,139.736481 
	C221.560577,139.724548 222.692032,138.437546 222.959152,137.539185 
	C226.251465,126.467102 239.935608,123.713631 250.712479,126.734245 
	C260.076599,129.358902 263.447968,136.800430 261.285431,148.859131 
	C255.037964,149.212570 248.740601,149.470215 242.459671,149.945038 
	C230.038513,150.884079 217.616150,151.593689 205.993881,157.014923 
	C181.588318,168.398987 182.930435,198.725983 197.476608,212.396042 
	C212.703842,226.706192 240.929276,226.598816 255.696060,211.807495 
	C257.677063,209.823196 259.503357,207.684448 262.251282,204.691483 
	C262.251282,210.940231 262.251282,215.851593 262.251282,220.629242 
	C273.418518,220.629242 284.137726,220.629242 294.927032,220.629242 
	C294.927032,192.616959 295.206116,164.975937 294.794495,137.345184 
	C294.621338,125.722900 288.963593,116.366623 279.314575,109.683563 
	C267.372040,101.411980 253.850143,99.696037 238.852234,100.431656 
M506.907928,100.429039 
	C502.458557,101.035004 497.938385,101.324562 493.571991,102.301407 
	C474.092896,106.659271 461.210571,121.169411 460.682404,139.816589 
	C470.098907,139.816589 479.518402,139.882614 488.932861,139.694504 
	C489.707825,139.679016 490.757202,138.052277 491.156982,136.979614 
	C495.127014,126.327454 507.860870,123.718109 518.855164,126.779999 
	C528.214050,129.386429 531.724609,137.342850 529.240906,148.881912 
	C522.800049,149.234390 516.319397,149.465225 509.860138,149.968994 
	C497.431885,150.938309 485.009430,151.720200 473.434143,157.309143 
	C448.639893,169.280685 450.142426,203.154510 470.027771,215.901184 
	C483.380371,224.460297 497.954376,225.779053 512.356384,219.180710 
	C518.846741,216.207138 524.245544,210.851273 530.141235,206.575165 
	C530.141235,210.816895 530.141235,215.727234 530.141235,220.674210 
	C541.321716,220.674210 552.044067,220.674210 562.935242,220.674210 
	C562.935242,192.365967 563.287231,164.380890 562.762207,136.412277 
	C562.551880,125.209068 556.733887,116.163643 547.391907,109.701225 
	C535.435486,101.430229 521.912354,99.699799 506.907928,100.429039 
M340.786133,167.742004 
	C346.336945,183.572678 351.862854,199.412140 357.448120,215.230652 
	C360.707825,224.462646 356.485901,232.588257 346.855652,234.049423 
	C341.436829,234.871597 335.791016,234.197525 330.168549,234.197525 
	C330.168549,242.487411 330.168549,250.417419 330.168549,259.808899 
	C336.642273,259.808899 342.897888,259.863342 349.152313,259.799347 
	C374.184906,259.543243 388.776123,249.672806 396.976929,226.025848 
	C410.906586,185.859940 424.277191,145.500137 437.854126,105.212181 
	C438.094971,104.497475 437.978241,103.662254 438.061310,102.371193 
	C427.274475,102.371193 416.815033,102.244637 406.367950,102.546501 
	C405.187622,102.580605 403.451416,104.857132 403.027985,106.386002 
	C396.558563,129.745880 390.269989,153.155823 383.926239,176.550568 
	C382.432983,182.057510 380.891876,187.551483 379.372803,193.051422 
	C378.209198,192.247223 378.027618,191.543060 377.838226,190.840973 
	C370.271545,162.791977 362.657715,134.755493 355.203766,106.676559 
	C354.398132,103.641716 353.341431,102.201019 349.917053,102.285294 
	C340.594086,102.514732 331.261719,102.343620 321.933319,102.390427 
	C320.718628,102.396515 319.505646,102.749947 318.204071,102.956413 
	C318.503967,104.146538 318.616364,104.808876 318.836182,105.433403 
	C326.059021,125.956985 333.292236,146.476944 340.786133,167.742004 
z"/>
<path fill="#303030" opacity="1.000000" stroke="none" 
	d="
M100.884277,59.169975 
	C119.743698,60.048725 136.522141,64.681931 148.776093,79.663284 
	C155.030197,87.309402 158.202118,97.225624 157.918152,107.825882 
	C147.544708,107.825882 137.151566,107.825882 126.252869,107.825882 
	C125.420654,98.396042 119.653290,92.384834 111.168358,89.350830 
	C100.992355,85.712143 90.548347,85.813881 80.547958,90.346634 
	C74.338501,93.161133 70.331947,98.229591 70.237396,105.106766 
	C70.138687,112.285736 74.193298,117.764183 80.910767,119.864410 
	C91.171799,123.072548 101.780441,125.150291 112.166313,127.983597 
	C120.320938,130.208221 128.732346,132.024368 136.384506,135.459274 
	C160.403290,146.240814 168.853241,173.139450 156.189651,196.335571 
	C148.417023,210.572845 135.764664,217.883438 120.567711,221.223999 
	C99.617424,225.829254 78.934486,225.318405 59.118404,216.055634 
	C42.897739,208.473541 32.788071,192.536942 33.159065,175.147537 
	C34.363667,175.017426 35.622162,174.770691 36.881969,174.763779 
	C43.881371,174.725372 50.893993,175.003357 57.876167,174.654358 
	C62.528488,174.421814 65.147263,175.235001 66.751831,180.424408 
	C69.104576,188.033508 76.012856,191.569794 83.129547,193.786133 
	C92.691238,196.763916 102.470734,196.861435 112.127022,193.927643 
	C114.471855,193.215225 116.790359,192.170425 118.868958,190.874313 
	C124.700424,187.238083 127.631821,182.031952 127.186432,174.966461 
	C126.764565,168.274094 122.941040,163.850403 117.161499,161.930817 
	C107.745735,158.803513 97.962395,156.802551 88.413574,154.050766 
	C78.870155,151.300568 69.026756,149.108322 60.008060,145.108475 
	C29.740160,131.684494 30.523476,93.166512 49.604744,75.627884 
	C61.324203,64.855896 75.436165,60.358952 90.906990,59.220814 
	C94.056366,58.989120 97.236435,59.174564 100.884277,59.169975 
z"/>
<path fill="#DA80F2" opacity="1.000000" stroke="none" 
	d="
M688.825806,186.849945 
	C696.642639,179.629105 698.805847,170.467346 698.861328,160.789597 
	C699.037170,130.133331 698.927002,99.475418 698.927368,68.818146 
	C698.927368,66.831123 698.927307,64.844101 698.927307,62.419483 
	C710.259949,62.419483 721.277283,62.419483 732.656372,62.419483 
	C732.751831,64.199959 732.913696,65.819687 732.914429,67.439484 
	C732.928894,99.096443 733.047119,130.754089 732.874329,162.410110 
	C732.783447,179.057159 728.612000,194.341141 716.084290,206.317734 
	C706.363098,215.611267 694.487488,220.681290 681.462219,222.746811 
	C664.602051,225.420471 647.969727,224.399719 632.136658,217.196930 
	C612.377258,208.207962 600.275879,192.685028 599.500061,171.293106 
	C598.208679,135.683777 599.040039,99.997391 598.991150,64.343437 
	C598.990479,63.857143 599.168396,63.370602 599.350220,62.434635 
	C610.312317,62.434635 621.332214,62.434635 632.957153,62.434635 
	C632.957153,64.476166 632.956970,66.423325 632.957092,68.370483 
	C632.959106,99.194374 632.917358,130.018372 632.993896,160.842072 
	C633.013123,168.599808 634.361389,176.127853 639.085571,182.575867 
	C647.854675,194.544922 666.570374,198.740356 681.061829,191.932602 
	C683.731323,190.678528 686.072937,188.726578 688.825806,186.849945 
z"/>
<path fill="#DA80F2" opacity="1.000000" stroke="none" 
	d="
M891.871460,119.822922 
	C891.103394,146.032547 873.349976,166.605881 847.876099,169.874329 
	C836.565491,171.325546 824.990112,170.721344 813.534241,171.025177 
	C811.239746,171.086044 808.942200,171.033966 806.039551,171.033966 
	C806.039551,187.748138 806.039551,203.970581 806.039551,220.592621 
	C794.548401,220.592621 783.660400,220.592621 772.310181,220.592621 
	C772.310181,168.004028 772.310181,115.346092 772.310181,61.977951 
	C774.137268,61.977951 775.907104,61.977940 777.677002,61.977959 
	C797.830322,61.978195 817.983582,61.967602 838.136902,61.981377 
	C863.867920,61.998962 883.300903,76.412605 889.984802,101.108688 
	C891.561279,106.933586 891.293701,113.257599 891.871460,119.822922 
M855.595276,105.280128 
	C853.095520,99.169067 849.005554,94.592751 842.856018,91.957230 
	C830.873047,86.821655 818.450989,89.799896 805.838745,89.095909 
	C805.838745,107.210251 805.771606,124.492844 806.005188,141.771378 
	C806.019226,142.809326 808.436340,144.695740 809.730713,144.691788 
	C817.856262,144.666916 826.014893,144.583679 834.097046,143.822678 
	C846.023438,142.699768 854.442017,135.426971 856.382080,123.782883 
	C857.335510,118.060463 856.091187,111.971870 855.595276,105.280128 
z"/>
<path fill="#303030" opacity="1.000000" stroke="none" 
	d="
M239.317322,100.398331 
	C253.850143,99.696037 267.372040,101.411980 279.314575,109.683563 
	C288.963593,116.366623 294.621338,125.722900 294.794495,137.345184 
	C295.206116,164.975937 294.927032,192.616959 294.927032,220.629242 
	C284.137726,220.629242 273.418518,220.629242 262.251282,220.629242 
	C262.251282,215.851593 262.251282,210.940231 262.251282,204.691483 
	C259.503357,207.684448 257.677063,209.823196 255.696060,211.807495 
	C240.929276,226.598816 212.703842,226.706192 197.476608,212.396042 
	C182.930435,198.725983 181.588318,168.398987 205.993881,157.014923 
	C217.616150,151.593689 230.038513,150.884079 242.459671,149.945038 
	C248.740601,149.470215 255.037964,149.212570 261.285431,148.859131 
	C263.447968,136.800430 260.076599,129.358902 250.712479,126.734245 
	C239.935608,123.713631 226.251465,126.467102 222.959152,137.539185 
	C222.692032,138.437546 221.560577,139.724548 220.813278,139.736481 
	C211.419250,139.886566 202.021988,139.834961 192.593338,139.834961 
	C193.316727,120.996254 206.054001,106.674194 225.526108,102.301758 
	C229.888168,101.322250 234.406082,101.036690 239.317322,100.398331 
M251.850388,170.211105 
	C248.534882,170.455643 245.175781,170.445236 241.913849,171.003052 
	C236.714066,171.892197 231.372345,172.604156 226.475540,174.425720 
	C221.733795,176.189606 219.634659,180.588898 219.742889,185.689362 
	C219.847473,190.618179 222.193573,194.395081 226.711639,196.346832 
	C236.340256,200.506363 245.616074,199.335297 254.033966,193.268890 
	C262.077423,187.472336 262.807526,179.076248 261.512939,170.119934 
	C258.424042,170.119934 255.601517,170.119934 251.850388,170.211105 
z"/>
<path fill="#303030" opacity="1.000000" stroke="none" 
	d="
M507.371582,100.395309 
	C521.912354,99.699799 535.435486,101.430229 547.391907,109.701225 
	C556.733887,116.163643 562.551880,125.209068 562.762207,136.412277 
	C563.287231,164.380890 562.935242,192.365967 562.935242,220.674210 
	C552.044067,220.674210 541.321716,220.674210 530.141235,220.674210 
	C530.141235,215.727234 530.141235,210.816895 530.141235,206.575165 
	C524.245544,210.851273 518.846741,216.207138 512.356384,219.180710 
	C497.954376,225.779053 483.380371,224.460297 470.027771,215.901184 
	C450.142426,203.154510 448.639893,169.280685 473.434143,157.309143 
	C485.009430,151.720200 497.431885,150.938309 509.860138,149.968994 
	C516.319397,149.465225 522.800049,149.234390 529.240906,148.881912 
	C531.724609,137.342850 528.214050,129.386429 518.855164,126.779999 
	C507.860870,123.718109 495.127014,126.327454 491.156982,136.979614 
	C490.757202,138.052277 489.707825,139.679016 488.932861,139.694504 
	C479.518402,139.882614 470.098907,139.816589 460.682404,139.816589 
	C461.210571,121.169411 474.092896,106.659271 493.571991,102.301407 
	C497.938385,101.324562 502.458557,101.035004 507.371582,100.395309 
M504.611969,198.842529 
	C523.662781,198.077393 532.676208,186.289642 529.312317,169.747742 
	C521.295105,170.299530 513.182556,170.677231 505.115173,171.498489 
	C501.694824,171.846710 498.203827,172.734695 495.038971,174.072800 
	C490.144348,176.142273 487.711578,180.265656 487.781830,185.591248 
	C487.852966,190.983856 490.652985,194.785782 495.571930,196.744675 
	C498.160370,197.775482 501.027496,198.106567 504.611969,198.842529 
z"/>
<path fill="#303030" opacity="1.000000" stroke="none" 
	d="
M340.655029,167.369720 
	C333.292236,146.476944 326.059021,125.956985 318.836182,105.433403 
	C318.616364,104.808876 318.503967,104.146538 318.204071,102.956413 
	C319.505646,102.749947 320.718628,102.396515 321.933319,102.390427 
	C331.261719,102.343620 340.594086,102.514732 349.917053,102.285294 
	C353.341431,102.201019 354.398132,103.641716 355.203766,106.676559 
	C362.657715,134.755493 370.271545,162.791977 377.838226,190.840973 
	C378.027618,191.543060 378.209198,192.247223 379.372803,193.051422 
	C380.891876,187.551483 382.432983,182.057510 383.926239,176.550568 
	C390.269989,153.155823 396.558563,129.745880 403.027985,106.386002 
	C403.451416,104.857132 405.187622,102.580605 406.367950,102.546501 
	C416.815033,102.244637 427.274475,102.371193 438.061310,102.371193 
	C437.978241,103.662254 438.094971,104.497475 437.854126,105.212181 
	C424.277191,145.500137 410.906586,185.859940 396.976929,226.025848 
	C388.776123,249.672806 374.184906,259.543243 349.152313,259.799347 
	C342.897888,259.863342 336.642273,259.808899 330.168549,259.808899 
	C330.168549,250.417419 330.168549,242.487411 330.168549,234.197525 
	C335.791016,234.197525 341.436829,234.871597 346.855652,234.049423 
	C356.485901,232.588257 360.707825,224.462646 357.448120,215.230652 
	C351.862854,199.412140 346.336945,183.572678 340.655029,167.369720 
z"/>
<path fill="#FFFEFF" opacity="1.000000" stroke="none" 
	d="
M855.718323,105.664558 
	C856.091187,111.971870 857.335510,118.060463 856.382080,123.782883 
	C854.442017,135.426971 846.023438,142.699768 834.097046,143.822678 
	C826.014893,144.583679 817.856262,144.666916 809.730713,144.691788 
	C808.436340,144.695740 806.019226,142.809326 806.005188,141.771378 
	C805.771606,124.492844 805.838745,107.210251 805.838745,89.095909 
	C818.450989,89.799896 830.873047,86.821655 842.856018,91.957230 
	C849.005554,94.592751 853.095520,99.169067 855.718323,105.664558 
z"/>
<path fill="#FCFCFC" opacity="1.000000" stroke="none" 
	d="
M252.314697,170.165527 
	C255.601517,170.119934 258.424042,170.119934 261.512939,170.119934 
	C262.807526,179.076248 262.077423,187.472336 254.033966,193.268890 
	C245.616074,199.335297 236.340256,200.506363 226.711639,196.346832 
	C222.193573,194.395081 219.847473,190.618179 219.742889,185.689362 
	C219.634659,180.588898 221.733795,176.189606 226.475540,174.425720 
	C231.372345,172.604156 236.714066,171.892197 241.913849,171.003052 
	C245.175781,170.445236 248.534882,170.455643 252.314697,170.165527 
z"/>
<path fill="#FCFCFC" opacity="1.000000" stroke="none" 
	d="
M504.190369,198.798065 
	C501.027496,198.106567 498.160370,197.775482 495.571930,196.744675 
	C490.652985,194.785782 487.852966,190.983856 487.781830,185.591248 
	C487.711578,180.265656 490.144348,176.142273 495.038971,174.072800 
	C498.203827,172.734695 501.694824,171.846710 505.115173,171.498489 
	C513.182556,170.677231 521.295105,170.299530 529.312317,169.747742 
	C532.676208,186.289642 523.662781,198.077393 504.190369,198.798065 
z"/>
</svg>